<?xml version="1.0" standalone="no"?><!DOCTYPE svg PUBLIC "-//W3C//DTD SVG 1.1//EN" "http://www.w3.org/Graphics/SVG/1.1/DTD/svg11.dtd"><svg t="1589959156528" class="icon" viewBox="0 0 1024 1024" version="1.1" xmlns="http://www.w3.org/2000/svg" p-id="4508" xmlns:xlink="http://www.w3.org/1999/xlink" width="200" height="200"><defs><style type="text/css"></style></defs><path d="M512.4 796.2c-22.8 0-46.6-12-72.8-36.7-41.9-39.5-91.1-113.8-131.4-198.8-42-88.5-66.1-170.4-66.1-224.7 0-72.1 28.1-139.8 79-190.8 51-51 118.7-79 190.8-79 72.1 0 139.8 28.1 190.8 79 51 51 79 118.7 79 190.8 0 35.1-9.3 79.5-27.5 132.1-16.3 46.9-38.7 97-64.7 144.7-26.4 48.5-54.5 90.6-81 121.6-34 39.7-64.2 59.9-92.2 61.6-1.3 0.1-2.6 0.2-3.9 0.2z m-0.4-666c-113.5 0-205.8 92.3-205.8 205.8 0 54.5 34.3 153.8 85.3 247.1 24.3 44.5 50.7 83.9 74.2 111 31.9 36.8 46.7 38 46.9 38 0.1 0 14.9-1.3 47.4-39.3 23.4-27.3 49.5-66.6 73.5-110.7C684 489.4 718 390.5 718 335.9c-0.2-113.4-92.5-205.7-206-205.7z" p-id="4509" fill="#ffffff"></path><path d="M512 957.8c-85.2 0-165.8-13.1-226.9-37-31.7-12.4-57-27.2-75.3-44.1-28.3-26.1-34.2-52.4-34.2-69.8 0-28.2 12.1-54.5 35-76.1 21.1-19.8 51.5-36 90.6-48 16.9-5.2 34.8 4.3 40 21.2s-4.3 34.8-21.2 40c-29.2 9-51.9 20.5-65.5 33.4-10 9.4-14.9 19.1-14.9 29.5 0 18.9 34.6 40.9 68.8 54.3 53.9 21 126.2 32.6 203.6 32.6s149.7-11.6 203.6-32.6c34.3-13.4 68.8-35.4 68.8-54.3 0-14.6-23.5-37.9-75.9-57-16.6-6-25.2-24.4-19.1-41 6-16.6 24.4-25.2 41-19.1 76.1 27.7 118.1 69.3 118.1 117.1 0 17.4-5.9 43.7-34.2 69.8-18.3 16.9-43.6 31.7-75.3 44.1-61.2 23.9-141.8 37-227 37zM512 453.6c-66.8 0-121.2-54.4-121.2-121.2S445.2 211.2 512 211.2s121.2 54.4 121.2 121.2S578.8 453.6 512 453.6z m0-178.4c-31.5 0-57.2 25.7-57.2 57.2s25.7 57.2 57.2 57.2 57.2-25.7 57.2-57.2-25.7-57.2-57.2-57.2z" p-id="4510" fill="#ffffff"></path></svg>